<?xml version="1.0" encoding="UTF-8" standalone="no"?>
<svg
   width="16"
   height="16"
   version="1.1"
   id="svg1"
   sodipodi:docname="TileMapDual.svg"
   inkscape:version="1.4 (e7c3feb100, 2024-10-09)"
   xmlns:inkscape="http://www.inkscape.org/namespaces/inkscape"
   xmlns:sodipodi="http://sodipodi.sourceforge.net/DTD/sodipodi-0.dtd"
   xmlns="http://www.w3.org/2000/svg"
   xmlns:svg="http://www.w3.org/2000/svg">
  <defs
     id="defs1" />
  <sodipodi:namedview
     id="namedview1"
     pagecolor="#ffffff"
     bordercolor="#999999"
     borderopacity="1"
     inkscape:showpageshadow="2"
     inkscape:pageopacity="0"
     inkscape:pagecheckerboard="0"
     inkscape:deskcolor="#d1d1d1"
     inkscape:zoom="35.5"
     inkscape:cx="8"
     inkscape:cy="8.028169"
     inkscape:window-width="1366"
     inkscape:window-height="736"
     inkscape:window-x="0"
     inkscape:window-y="0"
     inkscape:window-maximized="1"
     inkscape:current-layer="svg1" />
  <path
     fill="#8da5f3"
     d="M8 2 6.25 3.375 8 4.75l1.75-1.375zm2.624 2.062-1.75 1.375 1.75 1.375 1.75-1.375Zm2.626 2.063L11.5 7.5l1.75 1.375L15 7.5ZM5.376 4.062l-1.75 1.375 1.75 1.375 1.75-1.375zM8 6.124 6.25 7.499 8 8.874l1.75-1.375zm2.626 2.063-1.75 1.375 1.75 1.375 1.75-1.375ZM2.75 6.125 1 7.5l1.75 1.375L4.5 7.5Zm2.624 2.062-1.75 1.375 1.75 1.375 1.75-1.375ZM8 10.25l-1.75 1.375L8 13l1.75-1.375z"
     id="path1"
     style="fill:#ffb273;fill-opacity:1" />
</svg>
