<?xml version="1.0" encoding="UTF-8" standalone="no"?>
<!-- Created with Inkscape (http://www.inkscape.org/) -->

<svg
   width="296"
   height="168"
   viewBox="0 0 78.316661 44.45"
   version="1.1"
   id="svg1"
   xml:space="preserve"
   inkscape:version="1.3.2 (091e20ef0f, 2023-11-25)"
   sodipodi:docname="reference_tileset_isometric.svg"
   xmlns:inkscape="http://www.inkscape.org/namespaces/inkscape"
   xmlns:sodipodi="http://sodipodi.sourceforge.net/DTD/sodipodi-0.dtd"
   xmlns="http://www.w3.org/2000/svg"
   xmlns:svg="http://www.w3.org/2000/svg"><sodipodi:namedview
     id="namedview1"
     pagecolor="#ffffff"
     bordercolor="#1a1a1a"
     borderopacity="1"
     inkscape:showpageshadow="2"
     inkscape:pageopacity="0"
     inkscape:pagecheckerboard="false"
     inkscape:deskcolor="#333333"
     inkscape:document-units="px"
     inkscape:zoom="2.0798883"
     inkscape:cx="81.494762"
     inkscape:cy="122.84314"
     inkscape:window-width="1366"
     inkscape:window-height="736"
     inkscape:window-x="0"
     inkscape:window-y="0"
     inkscape:window-maximized="1"
     inkscape:current-layer="g15"
     showgrid="true"><inkscape:grid
       id="grid49"
       units="px"
       originx="-21.166666"
       originy="-21.166666"
       spacingx="2.1166666"
       spacingy="2.1166666"
       empcolor="#0099e5"
       empopacity="0.2"
       color="#0099e5"
       opacity="0.10196078"
       empspacing="4"
       dotted="false"
       gridanglex="30"
       gridanglez="30"
       visible="true"
       enabled="true" /></sodipodi:namedview><defs
     id="defs1"><inkscape:perspective
       sodipodi:type="inkscape:persp3d"
       inkscape:vp_x="0 : -115.55001 : 1"
       inkscape:vp_y="0 : 999.99994 : 0"
       inkscape:vp_z="209.99998 : -115.55001 : 1"
       inkscape:persp3d-origin="104.99999 : -153.55001 : 1"
       id="perspective7" /></defs><g
     id="g15"
     inkscape:label="33"><path
       d="m 67.733331,33.866665 -4.233333,2.116667 4.233333,2.116667 4.233333,-2.116667 z"
       style="fill:#ff396a;stroke:#000000;stroke-width:0;stroke-linecap:round;stroke-linejoin:round;fill-opacity:1"
       id="path58" /><path
       d="m 71.966664,35.983332 -4.233333,2.116667 -4.233333,-2.116667 -4.233333,2.116667 8.466666,4.233333 8.466666,-4.233333 z"
       style="fill:#bfbfbf;stroke:#000000;stroke-width:0;stroke-linecap:round;stroke-linejoin:round"
       id="path57" /></g><g
     id="g14"
     inkscape:label="23"><path
       d="m 44.449998,40.216665 4.233334,-2.116666 -4.233334,-2.116667 -4.233333,2.116667 z"
       style="fill:#ff396a;stroke:#000000;stroke-width:0;stroke-linecap:round;stroke-linejoin:round;fill-opacity:1"
       id="path56" /><path
       d="m 52.916665,40.216665 -4.233333,-2.116666 -4.233334,2.116666 4.233334,2.116667 z"
       style="fill:#bfbfbf;stroke:#000000;stroke-width:0;stroke-linecap:round;stroke-linejoin:round"
       id="path55" /><path
       d="m 52.916665,35.983332 -4.233333,2.116667 4.233333,2.116666 4.233333,-2.116666 z"
       style="fill:#ff396a;stroke:#000000;stroke-width:0;stroke-linecap:round;stroke-linejoin:round;fill-opacity:1"
       id="path54" /><path
       d="m 48.683332,33.866665 -4.233334,2.116667 4.233334,2.116667 4.233333,-2.116667 z"
       style="fill:#bfbfbf;stroke:#000000;stroke-width:0;stroke-linecap:round;stroke-linejoin:round"
       id="path53" /></g><g
     id="g13"
     inkscape:label="13"><path
       d="m 33.866665,40.216665 -4.233333,-2.116666 -4.233333,2.116666 4.233333,2.116667 z"
       style="fill:#ff396a;stroke:#000000;stroke-width:0;stroke-linecap:round;stroke-linejoin:round;fill-opacity:1"
       id="path41" /><path
       d="m 29.633332,33.866665 -8.466666,4.233334 4.233333,2.116666 4.233333,-2.116666 4.233333,2.116666 4.233334,-2.116666 z"
       style="fill:#bfbfbf;stroke:#000000;stroke-width:0;stroke-linecap:round;stroke-linejoin:round"
       id="path40" /></g><g
     id="g12"
     inkscape:label="03"><path
       d="m 10.583333,33.866665 -8.4666664,4.233334 8.4666664,4.233333 8.466666,-4.233333 z"
       style="fill:#bfbfbf;stroke:#000000;stroke-width:0;stroke-linecap:round;stroke-linejoin:round"
       id="path39" /></g><g
     id="g11"
     inkscape:label="32"><path
       d="m 67.733331,23.283332 -8.466666,4.233334 4.233333,2.116666 8.466666,-4.233333 z"
       style="fill:#ff396a;stroke:#000000;stroke-width:0;stroke-linecap:round;stroke-linejoin:round;fill-opacity:1"
       id="path60" /><path
       d="m 71.966664,25.399999 -8.466666,4.233333 4.233333,2.116667 8.466666,-4.233333 z"
       style="fill:#bfbfbf;stroke:#000000;stroke-width:0;stroke-linecap:round;stroke-linejoin:round"
       id="path59" /></g><g
     id="g10"
     inkscape:label="22"><path
       d="m 44.449998,29.633332 4.233334,-2.116666 -4.233334,-2.116667 -4.233333,2.116667 z"
       style="fill:#bfbfbf;stroke:#000000;stroke-width:0;stroke-linecap:round;stroke-linejoin:round"
       id="path52" /><path
       d="m 48.683332,23.283332 -4.233334,2.116667 4.233334,2.116667 -4.233334,2.116666 4.233334,2.116667 8.466666,-4.233333 z"
       style="fill:#ff396a;stroke:#000000;stroke-width:0;stroke-linecap:round;stroke-linejoin:round;fill-opacity:1"
       id="path51" /></g><g
     id="g9"
     inkscape:label="12"><path
       d="m 29.633332,23.283332 -4.233333,2.116667 8.466666,4.233333 4.233334,-2.116666 z"
       style="fill:#ff396a;stroke:#000000;stroke-width:0;stroke-linecap:round;stroke-linejoin:round;fill-opacity:1"
       id="path43" /><path
       d="m 33.866665,29.633332 -8.466666,-4.233333 -4.233333,2.116667 8.466666,4.233333 z"
       style="fill:#bfbfbf;stroke:#000000;stroke-width:0;stroke-linecap:round;stroke-linejoin:round"
       id="path42" /></g><g
     id="g16"
     inkscape:label="02"><path
       d="m 14.816666,25.399999 -4.233333,2.116667 4.233333,2.116666 4.233333,-2.116666 z"
       style="fill:#ff396a;stroke:#000000;stroke-width:0;stroke-linecap:round;stroke-linejoin:round;fill-opacity:1"
       id="path38" /><path
       d="m 10.583333,23.283332 -8.4666664,4.233334 8.4666664,4.233333 4.233333,-2.116667 -4.233333,-2.116666 4.233333,-2.116667 z"
       style="fill:#bfbfbf;stroke:#000000;stroke-width:0;stroke-linecap:round;stroke-linejoin:round"
       id="path37" /></g><g
     id="g8"
     inkscape:label="31"><path
       d="m 67.733331,12.7 -8.466666,4.233333 4.233333,2.116666 4.233333,-2.116666 4.233333,2.116666 4.233333,-2.116666 z"
       style="fill:#ff396a;stroke:#000000;stroke-width:0;stroke-linecap:round;stroke-linejoin:round;fill-opacity:1"
       id="path62" /><path
       d="m 71.966664,19.049999 -4.233333,-2.116666 -4.233333,2.116666 4.233333,2.116667 z"
       style="fill:#bfbfbf;stroke:#000000;stroke-width:0;stroke-linecap:round;stroke-linejoin:round"
       id="path61" /></g><g
     id="g7"
     inkscape:label="21"><path
       d="m 48.683332,12.7 -8.466667,4.233333 8.466667,4.233333 8.466666,-4.233333 z"
       style="fill:#ff396a;stroke:#000000;stroke-width:0;stroke-linecap:round;stroke-linejoin:round;fill-opacity:1"
       id="path50" /></g><g
     id="g6"
     inkscape:label="11"><path
       d="m 29.633332,12.7 -4.233333,2.116666 4.233333,2.116667 4.233333,-2.116667 z"
       style="fill:#bfbfbf;stroke:#000000;stroke-width:0;stroke-linecap:round;stroke-linejoin:round"
       id="path45" /><path
       d="m 33.866665,14.816666 -4.233333,2.116667 -4.233333,-2.116667 -4.233333,2.116667 8.466666,4.233333 8.466667,-4.233333 z"
       style="fill:#ff396a;stroke:#000000;stroke-width:0;stroke-linecap:round;stroke-linejoin:round;fill-opacity:1"
       id="path44" /></g><g
     id="g5"
     inkscape:label="01"><path
       d="M 6.3499998,19.049999 10.583333,16.933333 6.3499998,14.816666 2.1166666,16.933333 Z"
       style="fill:#bfbfbf;stroke:#000000;stroke-width:0;stroke-linecap:round;stroke-linejoin:round"
       id="path36" /><path
       d="m 14.816666,19.049999 -4.233333,-2.116666 -4.2333332,2.116666 4.2333332,2.116667 z"
       style="fill:#ff396a;stroke:#000000;stroke-width:0;stroke-linecap:round;stroke-linejoin:round;fill-opacity:1"
       id="path35" /><path
       d="m 14.816666,14.816666 -4.233333,2.116667 4.233333,2.116666 4.233333,-2.116666 z"
       style="fill:#bfbfbf;stroke:#000000;stroke-width:0;stroke-linecap:round;stroke-linejoin:round"
       id="path34" /><path
       d="m 10.583333,12.7 -4.2333332,2.116666 4.2333332,2.116667 4.233333,-2.116667 z"
       style="fill:#ff396a;stroke:#000000;stroke-width:0;stroke-linecap:round;stroke-linejoin:round;fill-opacity:1"
       id="path33" /></g><g
     id="g4"
     inkscape:label="30"><path
       d="m 67.733331,2.1166666 -4.233333,2.1166666 8.466666,4.2333332 4.233333,-2.1166666 z"
       style="fill:#bfbfbf;stroke:#000000;stroke-width:0;stroke-linecap:round;stroke-linejoin:round"
       id="path64" /><path
       d="M 71.966664,8.4666664 63.499998,4.2333332 59.266665,6.3499998 67.733331,10.583333 Z"
       style="fill:#ff396a;stroke:#000000;stroke-width:0;stroke-linecap:round;stroke-linejoin:round;fill-opacity:1"
       id="path63" /></g><g
     id="g3"
     inkscape:label="20"><path
       d="m 52.916665,4.2333332 -4.233333,2.1166666 4.233333,2.1166666 4.233333,-2.1166666 z"
       style="fill:#bfbfbf;stroke:#000000;stroke-width:0;stroke-linecap:round;stroke-linejoin:round"
       id="path49" /><path
       d="M 48.683332,2.1166666 40.216665,6.3499998 48.683332,10.583333 52.916665,8.4666664 48.683332,6.3499998 52.916665,4.2333332 Z"
       style="fill:#ff396a;stroke:#000000;stroke-width:0;stroke-linecap:round;stroke-linejoin:round;fill-opacity:1"
       id="path48" /></g><g
     id="g2"
     inkscape:label="10"><path
       d="m 29.633332,2.1166666 -8.466666,4.2333332 4.233333,2.1166666 8.466666,-4.2333332 z"
       style="fill:#bfbfbf;stroke:#000000;stroke-width:0;stroke-linecap:round;stroke-linejoin:round"
       id="path47" /><path
       d="m 33.866665,4.2333332 -8.466666,4.2333332 4.233333,2.1166666 8.466667,-4.2333332 z"
       style="fill:#ff396a;stroke:#000000;stroke-width:0;stroke-linecap:round;stroke-linejoin:round;fill-opacity:1"
       id="path46" /></g><g
     id="g1"
     inkscape:label="00"><path
       d="M 10.583333,2.1166666 6.3499998,4.2333332 10.583333,6.3499998 6.3499998,8.4666664 10.583333,10.583333 19.049999,6.3499998 Z"
       style="fill:#bfbfbf;stroke:#000000;stroke-width:0;stroke-linecap:round;stroke-linejoin:round"
       id="path18" /><path
       d="M 6.3499998,8.4666664 10.583333,6.3499998 6.3499998,4.2333332 2.1166666,6.3499998 Z"
       style="fill:#ff396a;stroke:#000000;stroke-width:0;stroke-linecap:round;stroke-linejoin:round;fill-opacity:1"
       id="path17" /></g></svg>
